<svg viewBox="0 0 1024 1024" fill="currentColor" width="32" height="32" xmlns="http://www.w3.org/2000/svg" xmlns:xlink="http://www.w3.org/1999/xlink">
    <path d="M594.772 131.224c-3.752 1.736-8.656 5.144-10.896 7.576-4.020 4.364-9.168 19.812-7.94 23.828 0.348 1.136 1.092 4.164 1.652 6.728 1.268 5.788 9.968 15.888 17.012 19.744 4.764 2.612 14.588 2.948 98.232 3.396l92.94 0.496-134.268 134.332c-94.244 94.288-135.048 136.22-136.884 140.676-5.064 12.264-2.864 23.7 6.444 33.536 9.732 10.284 22.232 13.088 34.936 7.844 4.456-1.836 46.388-42.64 140.676-136.884l134.332-134.268 0.496 92.94c0.448 83.644 0.784 93.468 3.396 98.232 3.856 7.044 13.956 15.744 19.744 17.012 2.564 0.56 5.592 1.304 6.728 1.652 4.372 1.336 19.68-4.088 24.456-8.664 10.632-10.184 10.316-5.204 9.792-154.512l-0.472-135.804-4.584-6.924c-2.756-4.168-7.552-8.36-12.056-10.54-7.428-3.596-8.364-3.62-142.192-3.584-127.324 0.036-135.092 0.212-141.544 3.188zM178.1 257.756c-17.876 3.584-36.016 18.532-44.468 36.644l-4.78 10.24v542.72l4.776 10.24c6.268 13.44 19.416 26.64 32.592 32.732l10.42 4.816h542.72l10.42-4.816c13.176-6.092 26.324-19.292 32.592-32.732l4.776-10.24 0.512-153.6c0.352-105.576-0.056-155.564-1.312-159.884-2.64-9.076-15.224-19.676-25.116-21.16-17.052-2.556-32.604 8.004-36.148 24.54-1.36 6.34-1.936 51.888-1.936 152.32v143.276h-510.296v-512h142.424c97.12 0 145.208-0.596 151.176-1.876 16.376-3.512 26.988-18.3 25.108-34.992-0.996-8.836-4.424-14.236-13.908-21.912l-6.448-5.22-153.016-0.256c-84.156-0.14-156.196 0.38-160.088 1.16z" />
</svg>