<svg viewBox="0 0 1024 1024" fill="currentColor" width="32" height="32" xmlns="http://www.w3.org/2000/svg" xmlns:xlink="http://www.w3.org/1999/xlink">
    <path d="M822.64 553.36c5.794 5.794 9.378 13.799 9.378 22.64 0 17.683-14.335 32.018-32.018 32.018-8.841 0-16.846-3.584-22.64-9.378l-233.36-233.4v530.76c0 17.673-14.327 32-32 32s-32-14.327-32-32v0-530.76l-233.36 233.4c-5.794 5.794-13.799 9.378-22.64 9.378-17.683 0-32.018-14.335-32.018-32.018 0-8.841 3.584-16.846 9.378-22.64l-0 0 288-288c5.792-5.798 13.797-9.385 22.64-9.385s16.848 3.587 22.64 9.385l0 0zM864 128h-704c-17.673 0-32 14.327-32 32s14.327 32 32 32v0h704c17.673 0 32-14.327 32-32s-14.327-32-32-32v0z" />
</svg>