<svg viewBox="0 0 1024 1024" fill="currentColor" width="32" height="32" xmlns="http://www.w3.org/2000/svg" xmlns:xlink="http://www.w3.org/1999/xlink">
    <path d="M832 128h-96v-32c0-17.673-14.327-32-32-32s-32 14.327-32 32v0 32h-320v-32c0-17.673-14.327-32-32-32s-32 14.327-32 32v0 32h-96c-35.346 0-64 28.654-64 64v0 640c0 35.346 28.654 64 64 64v0h640c35.346 0 64-28.654 64-64v0-640c0-35.346-28.654-64-64-64v0zM288 192v32c0 17.673 14.327 32 32 32s32-14.327 32-32v0-32h320v32c0 17.673 14.327 32 32 32s32-14.327 32-32v0-32h96v128h-640v-128zM832 832h-640v-448h640v448zM560 528c0 26.51-21.49 48-48 48s-48-21.49-48-48c0-26.51 21.49-48 48-48v0c26.51 0 48 21.49 48 48v0zM736 528c0 26.51-21.49 48-48 48s-48-21.49-48-48c0-26.51 21.49-48 48-48v0c26.51 0 48 21.49 48 48v0zM384 688c0 26.51-21.49 48-48 48s-48-21.49-48-48c0-26.51 21.49-48 48-48v0c26.51 0 48 21.49 48 48v0zM560 688c0 26.51-21.49 48-48 48s-48-21.49-48-48c0-26.51 21.49-48 48-48v0c26.51 0 48 21.49 48 48v0zM736 688c0 26.51-21.49 48-48 48s-48-21.49-48-48c0-26.51 21.49-48 48-48v0c26.51 0 48 21.49 48 48v0z" />
</svg>