<svg viewBox="0 0 1024 1024" fill="currentColor" width="32" height="32" xmlns="http://www.w3.org/2000/svg" xmlns:xlink="http://www.w3.org/1999/xlink">
    <path d="M854.64 662.64c-5.792 5.798-13.797 9.385-22.64 9.385s-16.848-3.587-22.64-9.385l-0-0-297.36-297.4-297.36 297.4c-5.794 5.794-13.799 9.378-22.64 9.378-17.683 0-32.018-14.335-32.018-32.018 0-8.841 3.584-16.846 9.378-22.64l-0 0 320-320c5.792-5.798 13.797-9.385 22.64-9.385s16.848 3.587 22.64 9.385l0 0 320 320c5.798 5.792 9.385 13.797 9.385 22.64s-3.587 16.848-9.385 22.64l-0 0z" />
</svg>