<svg viewBox="0 0 1024 1024" fill="currentColor" width="32" height="32" xmlns="http://www.w3.org/2000/svg" xmlns:xlink="http://www.w3.org/1999/xlink">
    <path d="M482.562 81.217c-83.222 5.217-163.644 35.411-233.036 87.408-22.176 16.625-65.065 59.548-81.522 81.562-44.716 59.916-71.883 124.246-83.851 198.593-5.021 31.218-5.453 89.501-0.865 120.923 11.26 77.936 41.375 147.288 85.541 205.363l-0.786-1.091c16.694 22.343 59.548 65.202 81.886 81.886 56.978 43.399 126.346 73.505 201.904 84.431l2.368 0.285c14.728 2.13 32.414 3.095 57.617 3.095 68.989 0 128.302-13.569 188.846-43.193 46.649-22.805 78.467-45.649 116.206-83.35 37.7-37.74 60.574-69.585 83.35-116.206 27.551-55.239 43.681-120.333 43.681-189.2 0-71.096-17.188-138.171-47.644-197.306l1.13 2.417c-25.271-50.169-71.716-107.356-115.175-141.704-86.081-68.061-190.514-100.81-299.668-93.922zM570.333 151.135c76.217 12.822 142.716 47.556 194.594 97.4l-0.128-0.118c57.057 54.53 94.158 125.246 108.189 206.041 4.291 24.743 4.291 90.169-0.029 115.237-10.366 61.862-34.831 116.668-70.017 162.883l0.658-0.894c-103.201 138.412-293.616 185.26-448.718 110.449-36.934-17.509-68.582-39.675-95.897-66.273l0.079 0.079c-57.283-54.758-94.423-125.413-108.425-206.238-4.323-24.937-4.323-90.304 0-115.237 22.636-130.866 107.422-235.464 229.848-283.643 20.85-8.174 57.951-17.725 79.026-20.318 8.774-1.061 17.951-2.292 20.378-2.692 10.14-1.759 74.477 0.629 90.434 3.321zM664.324 382.742c-6.121 2.761-32.847 28.425-113.51 109.024l-105.526 105.428-38.103-38.172c-47.546-47.615-56.025-52.533-75.342-43.586-9.020 3.724-15.701 11.516-17.824 21.017l-0.029 0.196c-0.835 2.702-1.317 5.807-1.317 9.030 0 7.281 2.454 13.992 6.583 19.344l-0.059-0.079c2.496 3.587 27.099 29.025 54.689 56.524 51.368 51.238 58.844 57.224 71.42 57.224 13.732 0 17.322-3.223 137.911-123.684 64.135-64.072 118.692-119.459 121.188-123.055 4.078-5.276 6.534-11.977 6.534-19.258 0-3.213-0.481-6.328-1.375-9.256l0.059 0.226c-2.152-9.698-8.833-17.489-17.656-21.135l-0.196-0.079c-9.177-4.254-17.558-4.156-27.462 0.298z" />
</svg>