<svg viewBox="0 0 1024 1024" fill="currentColor" width="32" height="32" xmlns="http://www.w3.org/2000/svg" xmlns:xlink="http://www.w3.org/1999/xlink">
    <path d="M878.298 218.502c-4.052 1.715-93.607 90.087-260.343 256.754l-254.182 254.118-105.787-105.627c-58.213-58.117-108.327-106.909-111.418-108.454-18.67-9.284-43.329 4.71-45.732 25.946-1.842 16.493-5.399 12.449 121.327 139.535 64.861 64.998 121.295 120.215 125.445 122.682 4.604 2.868 10.184 4.57 16.165 4.57s11.564-1.704 16.301-4.644l-0.13 0.074c4.15-2.467 127.32-124.46 273.744-271.077 232.787-233.147 266.463-267.52 268.241-273.84 2.763-9.845 2.499-14.387-1.281-22.622-7.738-16.694-26.243-24.296-42.344-17.415z" />
</svg>