<svg viewBox="0 0 1024 1024" fill="currentColor" width="32" height="32" xmlns="http://www.w3.org/2000/svg" xmlns:xlink="http://www.w3.org/1999/xlink">
    <path d="M512 96c-229.75 0-416 186.25-416 416s186.25 416 416 416c229.75 0 416-186.25 416-416v0c-0.25-229.65-186.35-415.75-415.976-416l-0.024-0zM544 161.48c23.757 2.211 45.514 6.45 66.444 12.618l-2.444-0.618v677.2c-18.486 5.55-40.243 9.789-62.621 11.895l-1.379 0.105zM672 198.52c24.342 12.586 45.324 26.594 64.567 42.619l-0.567-0.459v542.64c-18.675 15.566-39.657 29.573-62.055 41.238l-1.945 0.922zM160 512c0.227-183.046 139.963-333.385 318.579-350.411l1.421-0.109v701.040c-180.037-17.135-319.773-167.474-320-350.497l-0-0.023zM800 714.16v-404.32c40.033 56.285 64.001 126.423 64.001 202.16s-23.968 145.875-64.733 203.245l0.732-1.085z" />
</svg>