<svg viewBox="0 0 1024 1024" fill="currentColor" width="32" height="32" xmlns="http://www.w3.org/2000/svg" xmlns:xlink="http://www.w3.org/1999/xlink">
    <path d="M627.2 131.224c-8.176 3.776-13.46 9.208-16.856 17.34-6.048 14.476-256.028 702.94-257.592 709.428-3.272 13.584 4.636 28.56 18.376 34.8 16.48 7.488 35.368-0.22 42.528-17.356 5.812-13.912 255.996-702.808 257.496-709.036 3.3-13.688-4.656-29.004-18.28-35.192-8.768-3.984-17.016-3.976-25.672 0.016zM241.776 323.612c-6.84 3.708-197.272 162.64-202.88 169.324-8 9.532-8.576 26.176-1.268 36.66 4.432 6.36 192.812 163.936 203.124 169.908 13.084 7.58 31.164 4.28 39.992-7.296 9.576-12.552 9.244-29.448-0.8-40.712-2.712-3.036-41.036-35.476-85.164-72.084-44.132-36.608-80.24-66.944-80.24-67.412s36.108-30.804 80.24-67.412c44.128-36.608 82.452-69.048 85.164-72.084 13.324-14.944 8.96-39.288-8.66-48.276-8-4.080-22.552-4.384-29.508-0.616zM752.208 324.384c-9.792 5.172-15.724 15.368-15.724 27.036 0 6.468 1.112 11.496 3.432 15.528 2.128 3.696 34.96 32.2 86.48 75.080 45.676 38.016 83.048 69.504 83.048 69.972s-37.372 31.956-83.048 69.972c-51.52 42.88-84.352 71.384-86.48 75.080-2.34 4.060-3.432 9.060-3.432 15.68 0 8.040 0.88 10.968 5.092 16.928 9.844 13.94 27.432 18.092 41.672 9.844 10.312-5.972 198.692-163.548 203.124-169.908 7.308-10.484 6.732-27.128-1.268-36.66-5.984-7.132-196.488-165.92-203.26-169.424-7.176-3.712-21.764-3.28-29.636 0.872z" />
</svg>