<svg viewBox="0 0 1024 1024" fill="currentColor" width="32" height="32" xmlns="http://www.w3.org/2000/svg" xmlns:xlink="http://www.w3.org/1999/xlink">
    <path d="M280.575 139.066c-27.734 12.641-23.786 52.174 5.873 58.561 5.967 1.271 87.706 1.835 273.294 1.835h264.745v264.745c0 185.558 0.564 267.333 1.835 273.294 3.527 16.495 18.8 26.839 35.769 24.301 9.821-1.459 21.665-11.611 24.162-20.729 2.301-8.227 2.305-575.243 0.045-583.47-1.598-4.371-3.997-8.087-7.095-11.186v0c-11.656-11.28 11.889-10.479-304.931-10.434-274.007 0.045-287.345 0.188-293.737 3.057zM155.234 264.456c-8.505 3.948-15.465 11.329-17.578 18.661-2.211 7.802-2.211 575.055 0.045 583.139 2.068 7.381 12.551 17.815 20.161 19.977 3.666 1.079 108.762 1.647 291.491 1.647s287.825-0.609 291.491-1.647c7.569-2.162 18.093-12.596 20.161-19.977 2.256-8.129 2.256-575.243 0-583.327-1.598-4.371-3.997-8.087-7.095-11.186v0c-11.656-11.28 11.889-10.479-304.931-10.434-275.793 0.045-287.3 0.143-293.737 3.147zM699.143 575.449v250.646h-499.594v-501.286h499.594v250.646z" />
</svg>