<svg viewBox="0 0 1024 1024" fill="currentColor" width="32" height="32" xmlns="http://www.w3.org/2000/svg" xmlns:xlink="http://www.w3.org/1999/xlink">
    <path d="M330.332 165.724c-32.924 16.404-39.42 60.432-12.568 85.18 11.204 10.328 19.936 13.752 35.588 13.952 15.748 0.2 26.436-4.088 37.332-14.988 10.9-10.896 15.184-21.584 14.988-37.332-0.2-15.396-3.528-24.12-13.408-35.072-15.080-16.732-41.768-21.792-61.932-11.74zM648.12 165.32c-10.568 4.932-21.844 16.412-26.504 26.988-4.656 10.576-4.42 31.292 0.476 41.816 9.104 19.572 27.168 31.004 48.56 30.732 15.652-0.204 24.384-3.624 35.588-13.952 26.796-24.696 20.28-68.808-12.568-85.18-13.16-6.56-32-6.724-45.548-0.404zM336.824 462.024c-18.092 6.744-29.396 19.504-34.324 38.74-2.596 10.144-2.588 12.356 0.084 22.796 3.868 15.096 12.604 26.984 24.94 33.936 26.1 14.708 58.976 5.088 72.268-21.144 6.964-13.74 8.268-24.884 4.448-38.024-6.464-22.24-24.832-36.956-47.748-38.252-7.88-0.448-15.18 0.276-19.672 1.948zM654.136 462.14c-25.712 9.172-40.92 34.98-35.332 59.948 8.576 38.332 50.428 54.608 82.776 32.192 9.576-6.636 16.384-17.244 19.92-31.044 2.584-10.096 2.584-12.376 0-22.468-4.948-19.292-16.464-32.256-34.324-38.628-9.132-3.256-23.916-3.256-33.044 0zM343.024 759.668c-49.028 10.34-57.128 76.84-12.044 98.896 26.192 12.82 59.428 0.344 71.372-26.784 4.692-10.656 4.476-31.336-0.44-41.9-10.144-21.812-35.944-35.048-58.888-30.208zM658.536 759.952c-17.256 3.492-33.612 19.124-38.844 37.128-12.412 42.708 33.32 81.060 73.328 61.484 18.564-9.084 29.672-26.568 29.82-46.968 0.252-33.552-30.74-58.444-64.308-51.644z" />
</svg>