<svg viewBox="0 0 1024 1024" fill="currentColor" width="32" height="32" xmlns="http://www.w3.org/2000/svg" xmlns:xlink="http://www.w3.org/1999/xlink">
    <path d="M185.020 99.088c-9.65 4.727-16.701 13.493-19.011 24.023l-0.042 0.234c-1.249 5.414-1.946 74.476-1.946 198.478l-0.072 190.181-37.482 0.032c-32.348 0.032-38.491 0.521-44.946 3.436-15.305 6.943-23.706 23.394-19.678 38.419 3.091 11.557 6.904 16.73 16.763 22.522l8.538 4.998h111.995c108.313 0 112.204-0.104 119.246-3.716 4.028-2.011 9.859-6.904 12.982-10.796 5.030-6.351 5.655-8.466 5.655-19.574 0-15.546-5.655-25.404-18.045-31.411-7.464-3.612-11.173-3.924-46.404-3.924h-38.282v-192.96c0-120.912-0.696-195.427-1.842-199.52-3.403-12.182-20.062-24.019-33.734-23.947-5.050 0.416-9.703 1.666-13.971 3.612l0.26-0.104zM498.059 99.056c-8.476 3.696-15.035 10.474-18.349 18.887l-0.078 0.234c-2.427 5.863-2.844 19.814-2.844 96.691v89.853h-38.94c-35.12 0-39.668 0.345-46.124 3.644-13.431 6.839-20.127 20.479-17.772 36.161 1.633 10.86 12.878 23.979 22.977 26.79 9.13 2.499 220.896 2.499 230.026 0 10.099-2.811 21.344-15.93 22.977-26.79 2.362-15.689-4.341-29.328-17.772-36.161-6.455-3.299-11.004-3.644-46.124-3.644h-38.94l-0.032-90.237c-0.032-83.781-0.28-90.79-3.436-97.661-8.401-18.116-28.111-25.821-45.571-17.772zM810.857 99.056c-9.403 4.373-17.147 12.566-19.47 20.687-1.145 3.989-1.802 102.834-1.802 268.725v262.373h-38.282c-35.224 0-38.94 0.312-46.404 3.924-14.817 7.184-22.626 26.621-17.251 42.928 3.299 9.923 14.505 19.053 26.517 21.552 6.976 1.425 42.551 1.906 116.298 1.529l106.269-0.521 8.538-4.998c19.398-11.42 23.739-34.775 9.546-51.642-9.579-11.349-15.546-12.702-57.401-12.735l-37.482-0.032-0.072-259.595c0-171.72-0.696-262.406-1.946-267.892-5.069-21.969-27.279-33.454-47.061-24.292zM493.198 448.815c-4.965 3.156-8.986 7.36-11.842 12.318l-0.094 0.176c-3.436 6.976-3.572 14.192-4.093 221-0.384 148.262 0.032 215.866 1.425 220.623 4.061 14.023 19.053 25.476 33.35 25.476s29.289-11.453 33.35-25.476c1.386-4.757 1.802-72.361 1.425-220.623-0.521-206.808-0.657-214.024-4.093-221-5.31-10.692-17.563-17.772-30.682-17.772-0.592-0.042-1.275-0.072-1.959-0.072-6.289 0-12.11 2.004-16.867 5.404l0.084-0.062zM185.020 654.373c-9.65 4.727-16.701 13.493-19.011 24.023l-0.042 0.234c-2.675 11.661-2.675 209.547 0.032 222.080 3.924 18.253 20.823 29.745 39.636 26.934 10.86-1.633 23.979-12.878 26.79-22.977 2.466-8.954 2.531-220.896 0.032-229.85-3.403-12.182-20.062-24.019-33.734-23.947-5.050 0.416-9.703 1.666-13.971 3.612l0.26-0.104zM810.857 793.161c-9.403 4.373-17.147 12.566-19.47 20.687-2.395 8.329-2.323 82.18 0.072 90.822 2.811 10.099 15.93 21.344 26.79 22.977 1.76 0.322 3.79 0.501 5.863 0.501 16.555 0 30.374-11.651 33.724-27.207l0.042-0.228c2.571-11.902 2.571-72.185 0.032-83.261-5.069-21.969-27.279-33.454-47.061-24.292z" />
</svg>