<svg viewBox="0 0 1024 1024" fill="currentColor" width="32" height="32" xmlns="http://www.w3.org/2000/svg" xmlns:xlink="http://www.w3.org/1999/xlink">
    <path d="M497.247 82.49c-5.561 1.244-13.853 4.14-18.41 6.449-9.903 5.079-361.76 355.387-370.173 368.616-11.68 18.284-11.147 7.084-11.147 242.134 0 134.256 0.686 216.221 1.829 220.342 2.285 8.151 13.853 19.654 22.213 22.041 3.936 1.142 61.035 1.829 150.042 1.802 136.364-0.024 144.071-0.204 151.284-3.478 9.599-4.71 16.62-13.421 18.932-23.908l0.039-0.24c1.22-5.205 1.93-52.539 1.93-128.455l0.075-120.202h136.301l0.075 120.202c0 75.925 0.723 123.26 1.93 128.455 2.488 10.843 9.599 19.892 18.968 24.149 7.213 3.276 14.932 3.454 151.284 3.478 89.005 0.024 146.104-0.66 150.042-1.802 8.355-2.387 19.933-13.89 22.213-22.041 1.142-4.113 1.829-86.073 1.829-220.342 0-235.056 0.507-223.858-11.147-242.134-2.896-4.557-85.525-88.409-183.584-186.351-190.566-190.288-184.828-185.068-207.733-189.284-12.849-2.387-13.637-2.387-26.765 0.558zM684.702 321.712l171.775 171.775v382.277h-206.311v-124.417c0-107.796-0.381-125.317-2.83-131.196-2.779-7.783-8.508-13.916-15.79-17.154l-0.191-0.075c-6.449-3.327-12.57-3.478-119.338-3.478s-112.875 0.177-119.338 3.478c-7.476 3.327-13.218 9.459-15.934 17.040l-0.063 0.204c-2.464 5.867-2.83 23.387-2.83 131.196v124.417h-206.311v-382.277l171.775-171.775c94.477-94.503 172.183-171.802 172.702-171.802 0.483 0 78.237 77.286 172.702 171.802z" />
</svg>