<svg viewBox="0 0 1024 1024" fill="currentColor" width="32" height="32" xmlns="http://www.w3.org/2000/svg" xmlns:xlink="http://www.w3.org/1999/xlink">
    <path d="M864 160h-576c-35.346 0-64 28.654-64 64v0 64h-64c-35.346 0-64 28.654-64 64v0 448c0 35.346 28.654 64 64 64v0h576c35.346 0 64-28.654 64-64v0-64h64c35.346 0 64-28.654 64-64v0-448c0-35.346-28.654-64-64-64v0zM288 224h576v251l-40.28-40.24c-11.582-11.585-27.584-18.75-45.26-18.75s-33.678 7.166-45.26 18.75l-80 80-176-176c-11.58-11.573-27.574-18.73-45.24-18.73s-33.66 7.157-45.24 18.731l-98.72 98.72zM736 800h-576v-448h64v320c0 35.346 28.654 64 64 64v0h448zM864 672h-576v-144l144-144 198.64 198.64c5.79 5.786 13.787 9.365 22.62 9.365s16.83-3.579 22.62-9.365l102.64-102.64 85.48 85.52v106.48zM640 336c0-26.51 21.49-48 48-48s48 21.49 48 48c0 26.51-21.49 48-48 48v0c-26.51 0-48-21.49-48-48v0z" />
</svg>