<svg viewBox="0 0 1024 1024" fill="currentColor" width="32" height="32" xmlns="http://www.w3.org/2000/svg" xmlns:xlink="http://www.w3.org/1999/xlink">
    <path d="M511.992 95.992c-229.75 0-416 186.25-416 416s186.25 416 416 416c229.75 0 416-186.25 416-416v0c-0.25-229.65-186.35-415.75-415.976-416h-0.024zM511.992 863.992c-194.404 0-352-157.596-352-352s157.596-352 352-352c194.404 0 352 157.596 352 352v0c-0.228 194.313-157.687 351.772-351.978 352h-0.022zM575.992 703.992c0 17.673-14.327 32-32 32v0c-35.346 0-64-28.654-64-64v0-160c-17.673 0-32-14.327-32-32s14.327-32 32-32v0c35.346 0 64 28.654 64 64v0 160c17.673 0 32 14.327 32 32v0zM447.992 335.992c0-26.51 21.49-48 48-48s48 21.49 48 48c0 26.51-21.49 48-48 48v0c-26.51 0-48-21.49-48-48v0z" />
</svg>