<svg viewBox="0 0 1024 1024" fill="currentColor" width="32" height="32" xmlns="http://www.w3.org/2000/svg" xmlns:xlink="http://www.w3.org/1999/xlink">
    <path d="M687.92 96.294c-25.275 2.125-61.788 11.799-81.079 21.486-15.652 8.056-29.115 16.79-41.599 26.675l0.52-0.41c-17.639 13.779-145.308 141.877-147.691 148.205-4.105 10.922-0.258 28.504 7.807 35.681 8.885 7.895 23.251 10.191 34.419 5.555 4.307-1.766 28.403-24.557 73.846-69.74 69.64-69.267 79.055-77.333 103.182-88.255 23.050-10.449 34.993-12.745 65.951-12.644 25.692 0.057 29.538 0.473 43.216 4.679 48.728 14.984 85.701 48.154 104.257 93.552 9.358 22.879 10.607 30.169 10.462 61.416-0.101 25.591-0.517 29.582-4.723 43.216-5.36 17.37-12.631 32.502-21.741 46.284l0.413-0.671c-3.387 5.297-35.926 39.427-74.003 77.749-45.67 45.928-68.807 70.415-70.617 74.719-8.311 19.908 4.535 41.924 25.477 43.676 1.188 0.104 2.548 0.161 3.944 0.161 3.9 0 7.697-0.473 11.329-1.397l-0.315 0.057c4.263-1.406 25.648-21.845 77.648-74.104 74.302-74.719 82.053-83.677 95.989-111.591 7.391-14.826 16.806-42.743 20.237-60.124 4.048-20.325 4.048-60.798 0-81.123-20.697-104.431-106.596-178.535-212.162-182.996-3.907-0.205-8.485-0.312-13.108-0.312-4.108 0-8.21 0.097-12.269 0.262l0.574-0.010zM632.392 353.071c-3.273 0.832-6.095 1.923-8.791 3.279l0.252-0.107c-1.866 1.047-63.138 61.731-136.135 134.845-119.975 120.177-132.922 133.694-134.688 140.414-0.735 2.592-1.188 5.555-1.188 8.623 0 17.733 14.359 32.092 32.092 32.092 3.068 0 6.032-0.423 8.838-1.242l-0.215 0.054c6.716-1.766 20.237-14.712 140.414-134.688 73.127-72.969 133.969-134.644 135.262-137.040 8.053-15.128 2.037-35.926-12.543-43.374-4.793-2.182-10.412-3.44-16.333-3.44-2.45 0-4.847 0.211-7.186 0.631l0.255-0.047zM289.834 419.696c-3.286 1.823-37.591 35.090-76.185 73.902-74.936 75.41-81.895 83.677-96.264 114.407-15.4 32.868-21.328 59.593-21.328 96.321 0 61.946 21.687 114.249 65.578 158.096 43.847 43.891 96.15 65.578 158.096 65.578 36.758 0 63.453-5.928 96.321-21.328 30.73-14.397 38.997-21.328 114.407-96.264 38.84-38.594 72.080-73.054 73.902-76.544 9.775-18.931-3.286-42.901-24.701-45.341-15.558-1.722-15.558-1.722-90.797 72.969-42.082 41.851-74.363 72.496-80.864 76.816-14.051 9.459-28.29 15.961-47.278 21.687-13.634 4.105-18.257 4.635-40.991 4.736-21.687 0.101-27.873-0.473-40.145-3.803-91.944-24.96-142.378-118.351-112.067-207.483 11.124-32.754 14.554-36.973 92.733-115.753 47.379-47.738 71.247-72.969 73.054-77.276 1.611-3.645 2.544-7.908 2.544-12.382 0-10.704-5.347-20.133-13.48-25.839l-0.104-0.057c-9.371-6.199-23.711-7.29-32.408-2.497z" />
</svg>