<svg viewBox="0 0 1024 1024" fill="currentColor" width="32" height="32" xmlns="http://www.w3.org/2000/svg" xmlns:xlink="http://www.w3.org/1999/xlink">
    <path d="M136.252 208.037c-0.977 0.337-3.952 1.084-6.623 1.654-11.421 2.497-23.039 18.479-23.039 31.691 0 7.74 5.168 19.358 10.977 24.699 11.085 10.173-15.406 9.528 394.358 9.528s383.279 0.641 394.358-9.528c5.678-5.201 10.944-16.893 11.011-24.287 0.065-11.823-7.806-24.665-18.884-30.747-4.963-2.769-35.372-3.007-382.871-3.311-207.639-0.171-378.311-0.033-379.294 0.304zM136.252 478.311c-0.977 0.337-3.952 1.084-6.623 1.654-11.421 2.497-23.039 18.479-23.039 31.691 0 7.74 5.168 19.358 10.977 24.699 11.085 10.173-15.406 9.528 394.358 9.528s383.279 0.641 394.358-9.528c5.678-5.201 10.944-16.893 11.011-24.287 0.065-11.823-7.806-24.665-18.884-30.747-4.963-2.769-35.372-3.007-382.871-3.311-207.639-0.171-378.311-0.033-379.294 0.304zM136.252 748.584c-0.977 0.337-3.952 1.084-6.623 1.654-11.421 2.497-23.039 18.479-23.039 31.691 0 7.74 5.168 19.358 10.977 24.699 11.085 10.173-15.406 9.528 394.358 9.528s383.279 0.641 394.358-9.528c5.678-5.201 10.944-16.893 11.011-24.287 0.065-11.823-7.806-24.665-18.884-30.747-4.963-2.769-35.372-3.007-382.871-3.311-207.639-0.171-378.311-0.033-379.294 0.304z" />
</svg>