<svg viewBox="0 0 1024 1024" fill="currentColor" width="32" height="32" xmlns="http://www.w3.org/2000/svg" xmlns:xlink="http://www.w3.org/1999/xlink">
    <path d="M152.364 225.16c-7.568 1.896-13.036 5.748-18.704 13.18-4.172 5.468-4.808 7.82-4.808 17.796 0 10.252 0.564 12.204 5.22 18.052 2.872 3.608 8.6 8.288 12.736 10.4 7.124 3.636 9.484 3.84 45.192 3.84s38.068-0.204 45.192-3.84c4.136-2.112 9.864-6.792 12.736-10.4 4.668-5.868 5.22-7.784 5.22-18.188 0-10.464-0.532-12.288-5.304-18.188-10.416-12.892-12.22-13.344-54.432-13.708-20.648-0.176-40.024 0.3-43.048 1.056zM375.676 225.268c-16.712 3.988-27.004 22.152-22.348 39.436 2.504 9.304 12.284 19.308 21.324 21.82 4.808 1.332 78.064 1.888 250.908 1.892l244.116 0.012 7.516-3.84c4.136-2.112 9.864-6.792 12.736-10.4 4.668-5.868 5.22-7.784 5.22-18.188 0-10.464-0.532-12.288-5.304-18.188-2.912-3.608-7.904-8.096-11.092-9.972-5.712-3.368-9.108-3.416-251.552-3.68-135.168-0.148-248.352 0.352-251.524 1.108zM152.364 481.16c-7.568 1.896-13.036 5.748-18.704 13.18-4.172 5.468-4.808 7.82-4.808 17.796 0 10.252 0.564 12.204 5.22 18.052 2.872 3.608 8.6 8.288 12.736 10.4 7.124 3.636 9.484 3.84 45.192 3.84s38.068-0.204 45.192-3.84c4.136-2.112 9.864-6.792 12.736-10.4 4.668-5.868 5.22-7.784 5.22-18.188 0-10.464-0.532-12.288-5.304-18.188-10.416-12.892-12.22-13.344-54.432-13.708-20.648-0.176-40.024 0.3-43.048 1.056zM375.676 481.268c-16.712 3.988-27.004 22.152-22.348 39.436 2.504 9.304 12.284 19.308 21.324 21.82 4.808 1.332 78.064 1.888 250.908 1.892l244.116 0.012 7.516-3.84c4.136-2.112 9.864-6.792 12.736-10.4 4.668-5.868 5.22-7.784 5.22-18.188 0-10.464-0.532-12.288-5.304-18.188-2.912-3.608-7.904-8.096-11.092-9.972-5.712-3.368-9.108-3.416-251.552-3.68-135.168-0.148-248.352 0.352-251.524 1.108zM152.364 737.16c-7.568 1.896-13.036 5.748-18.704 13.18-4.172 5.468-4.808 7.82-4.808 17.796 0 10.252 0.564 12.204 5.22 18.052 2.872 3.608 8.6 8.288 12.736 10.4 7.124 3.636 9.484 3.84 45.192 3.84s38.068-0.204 45.192-3.84c4.136-2.112 9.864-6.792 12.736-10.4 4.668-5.868 5.22-7.784 5.22-18.188 0-10.464-0.532-12.288-5.304-18.188-10.416-12.892-12.22-13.344-54.432-13.708-20.648-0.176-40.024 0.3-43.048 1.056zM375.676 737.268c-16.712 3.988-27.004 22.152-22.348 39.436 2.504 9.304 12.284 19.308 21.324 21.82 4.808 1.332 78.064 1.888 250.908 1.892l244.116 0.012 7.516-3.84c4.136-2.112 9.864-6.792 12.736-10.4 4.668-5.868 5.22-7.784 5.22-18.188 0-10.464-0.532-12.288-5.304-18.188-2.912-3.608-7.904-8.096-11.092-9.972-5.712-3.368-9.108-3.416-251.552-3.68-135.168-0.148-248.352 0.352-251.524 1.108z" />
</svg>