<svg viewBox="0 0 1024 1024" fill="currentColor" width="32" height="32" xmlns="http://www.w3.org/2000/svg" xmlns:xlink="http://www.w3.org/1999/xlink">
    <path d="M477.367 58.666c-61.322 10.316-117.839 51.95-145.741 107.323-7.764 14.805-14.12 31.981-18.199 50.014l-0.269 1.43c-3.147 14.039-3.754 24.76-4.498 79.752l-0.882 63.518-152.135 1.013-12.043 5.955c-14.089 7.11-25.159 18.491-31.684 32.419l-0.178 0.426-4.701 9.91v506.906l5.043 10.823c6.632 14.208 20.533 28.178 34.434 34.603l11.027 5.074h708.932l11.027-5.074c13.901-6.425 27.802-20.395 34.434-34.603l5.043-10.823v-506.906l-4.701-9.91c-6.703-14.348-17.773-25.729-31.475-32.666l-0.388-0.178-12.043-5.955-152.104-1.013-0.913-63.518c-0.775-54.728-1.42-65.789-4.53-79.752-15.828-71.163-64.907-126.805-132.754-150.515-29.867-10.454-68.729-13.632-100.692-8.252zM543.997 127.364c36.328 8.083 70.556 35.309 87.804 69.843 13.901 27.871 14.208 29.936 15.052 100.929l0.712 62.711h-271.095l0.676-62.711c0.775-70.994 1.082-72.921 15.052-100.929 5.274-10.585 12.28-20.939 19.175-28.477 34.671-37.811 82.024-52.595 132.623-41.365zM849.32 664.78v237.237h-674.637v-474.436h674.637v237.199z" />
</svg>