<svg viewBox="0 0 1024 1024" fill="currentColor" width="32" height="32" xmlns="http://www.w3.org/2000/svg" xmlns:xlink="http://www.w3.org/1999/xlink">
    <path d="M420.552 97.296c-92.524 6.492-181.636 52.46-242.44 125.060-109.44 130.668-109.42 321.072 0.044 451.288 62.3 74.112 146.848 117.448 244.644 125.396 84.588 6.876 176.352-21.216 242.8-74.328l7.68-6.14 103.252 103.092c92.884 92.736 104.004 103.288 110.7 105.044 24.388 6.4 45.876-15.088 39.476-39.476-1.756-6.696-12.308-17.816-105.044-110.7l-103.092-103.252 6.14-7.68c62.172-77.78 88.528-186.636 68.896-284.556-24.056-120.004-105.348-216.94-219.284-261.488-45.896-17.944-101.196-25.948-153.772-22.26zM485.884 163.036c128.344 16.636 230.444 118.736 247.080 247.080 17.448 134.612-59.272 261.356-186.624 308.312-62.288 22.968-134.392 22.968-196.68 0-101.288-37.344-172.884-126.56-186.624-232.544-11.672-90.064 17.872-177.14 81.788-241.060 63.904-63.904 151.016-93.46 241.060-81.788z" />
</svg>