<svg viewBox="0 0 1024 1024" fill="currentColor" width="32" height="32" xmlns="http://www.w3.org/2000/svg" xmlns:xlink="http://www.w3.org/1999/xlink">
    <path d="M704 512c0 17.673-14.327 32-32 32v0h-320c-17.673 0-32-14.327-32-32s14.327-32 32-32v0h320c17.673 0 32 14.327 32 32v0zM928 512c0 229.75-186.25 416-416 416s-416-186.25-416-416c0-229.75 186.25-416 416-416v0c229.65 0.25 415.75 186.35 416 415.976l0 0.024zM864 512c0-194.404-157.596-352-352-352s-352 157.596-352 352c0 194.404 157.596 352 352 352v0c194.313-0.228 351.772-157.687 352-351.978l0-0.022z" />
</svg>