<svg viewBox="0 0 1024 1024" fill="currentColor" width="32" height="32" xmlns="http://www.w3.org/2000/svg" xmlns:xlink="http://www.w3.org/1999/xlink">
    <path d="M928 480c-0.273-229.641-186.359-415.727-415.974-416l-0.026-0c-229.641 0.273-415.727 186.359-416 415.974l-0 0.026c-0 0.017-0 0.038-0 0.058 0 10.132 4.744 19.155 12.132 24.971l0.068 0.052c0.179 0.192 0.375 0.363 0.588 0.512l0.012 0.008 371.2 278.4v80h-32c-17.673 0-32 14.327-32 32s14.327 32 32 32v0h128c17.673 0 32-14.327 32-32s-14.327-32-32-32v0h-32v-80l371.2-278.4c7.807-5.9 12.8-15.167 12.8-25.6v-0zM862.56 448h-159.24c-6.16-151.8-55.64-249.72-100.44-308 141.066 38.833 245.453 159.518 259.569 306.57l0.111 1.43zM512 136c21.213 18.806 39.566 40.134 54.79 63.675l0.73 1.205c30.44 47.12 66.28 126.6 71.76 247.12h-254.56c5.48-120.52 41.32-200 71.76-246.96 15.948-24.809 34.302-46.19 55.206-64.766l0.314-0.274zM617.6 512l-105.6 190.12-105.6-190.12zM333.16 512l78 140.36-187.16-140.36zM690.84 512h109.16l-187.16 140.36zM421.12 140c-44.8 58.28-94.28 156.2-100.44 308h-159.24c14.227-148.481 118.614-269.166 257.202-307.417l2.478-0.583z" />
</svg>