<svg viewBox="0 0 1024 1024" fill="currentColor" width="32" height="32" xmlns="http://www.w3.org/2000/svg" xmlns:xlink="http://www.w3.org/1999/xlink">
    <path d="M909.28 293.48l-178.76-178.72c-11.582-11.585-27.584-18.75-45.26-18.75s-33.678 7.166-45.26 18.75l-493.24 493.24c-11.587 11.498-18.76 27.43-18.76 45.037 0 0.071 0 0.143 0 0.214l-0-0.011v178.76c0 35.346 28.654 64 64 64v0h178.76c0.060 0 0.131 0 0.203 0 17.607 0 33.539-7.173 45.033-18.756l0.004-0.004 334.68-334.64 13.92 55.6-147.2 147.16c-5.797 5.793-9.384 13.797-9.384 22.64 0 17.675 14.329 32.004 32.004 32.004 8.833 0 16.829-3.578 22.62-9.364l160-160c5.803-5.793 9.393-13.801 9.393-22.648 0-2.753-0.348-5.425-1.001-7.974l0.048 0.222-27.6-110.44 105.8-105.8c11.585-11.582 18.75-27.584 18.75-45.26s-7.166-33.678-18.75-45.26l-0-0zM192 717.24l114.76 114.76h-114.76zM384 818.76l-178.76-178.76 338.76-338.76 178.76 178.76zM768 434.76l-178.72-178.76 96-96 178.72 178.76z" />
</svg>