<svg viewBox="0 0 1024 1024" fill="currentColor" width="32" height="32" xmlns="http://www.w3.org/2000/svg" xmlns:xlink="http://www.w3.org/1999/xlink">
    <path d="M909.24 293.48l-178.72-178.76c-11.582-11.585-27.584-18.75-45.26-18.75s-33.678 7.166-45.26 18.75l-493.24 493.28c-11.587 11.498-18.76 27.43-18.76 45.037 0 0.071 0 0.143 0 0.214l-0-0.011v178.76c0 35.346 28.654 64 64 64v0h178.76c0.060 0 0.131 0 0.203 0 17.607 0 33.539-7.173 45.033-18.756l0.004-0.004 493.24-493.24c11.585-11.582 18.75-27.584 18.75-45.26s-7.166-33.678-18.75-45.26l-0-0zM370.76 832h-178.76v-178.76l352-352 178.76 178.76zM768 434.72l-178.76-178.72 96-96 178.76 178.72z" />
</svg>