<svg viewBox="0 0 1024 1024" fill="currentColor" width="32" height="32" xmlns="http://www.w3.org/2000/svg" xmlns:xlink="http://www.w3.org/1999/xlink">
    <path d="M640 160c0-70.692-57.308-128-128-128s-128 57.308-128 128c0 70.692 57.308 128 128 128v0c70.692 0 128-57.308 128-128v0zM512 224c-35.346 0-64-28.654-64-64s28.654-64 64-64c35.346 0 64 28.654 64 64v0c0 35.346-28.654 64-64 64v0zM926 350.84c-7.532-36.11-39.097-62.848-76.907-62.848-0.384 0-0.768 0.003-1.151 0.008l0.058-0.001h-672c-0.001-0-0.002-0-0.002-0-44.183 0-80 35.817-80 80 0 32.023 18.815 59.651 45.994 72.433l0.489 0.207h0.52l203 89.4-84 318.88c-4.528 9.733-7.17 21.128-7.17 33.14 0 44.277 35.893 80.17 80.17 80.17 32.265 0 60.078-19.060 72.794-46.534l0.206-0.496 104-179.48 104 179.48c13.413 26.473 40.421 44.302 71.594 44.302 44.183 0 80-35.817 80-80 0-10.957-2.203-21.4-6.19-30.91l0.196 0.527-84-318.88 203-89.4h0.52c27.897-12.468 46.985-39.972 46.985-71.935 0-6.409-0.767-12.638-2.215-18.602l0.11 0.537zM854.8 382.44l-227.72 100.24c-11.341 5.088-19.097 16.28-19.097 29.283 0 2.9 0.386 5.71 1.109 8.381l-0.052-0.224 91.48 347.88c0.524 2.067 1.195 3.864 2.033 5.564l-0.073-0.164c0.951 1.986 1.506 4.317 1.506 6.777 0 8.837-7.163 16-16 16-1.976 0-3.869-0.358-5.617-1.014l0.11 0.036c-4.011-1.5-7.188-4.443-8.959-8.183l-0.041-0.097c-0.472-1.005-0.926-1.83-1.422-2.627l0.062 0.107-132.44-228.4c-5.643-9.601-15.921-15.943-27.68-15.943s-22.037 6.343-27.598 15.793l-0.082 0.15-132.32 228.2c-0.434 0.69-0.888 1.515-1.295 2.368l-0.065 0.152c-1.812 3.837-4.989 6.78-8.89 8.244l-0.11 0.036c-1.637 0.619-3.53 0.977-5.506 0.977-8.837 0-16-7.163-16-16 0-2.461 0.555-4.791 1.548-6.874l-0.041 0.097c0.765-1.536 1.436-3.333 1.918-5.206l0.042-0.194 91.36-347.8c0.671-2.447 1.057-5.257 1.057-8.157 0-13.004-7.756-24.196-18.895-29.202l-0.202-0.081-227.72-100.12c-5.431-2.635-9.109-8.108-9.109-14.44 0-8.805 7.112-15.948 15.905-16l0.005-0h672c0.009-0 0.019-0 0.029-0 8.837 0 16 7.163 16 16 0 6.332-3.678 11.805-9.014 14.398l-0.095 0.042z" />
</svg>