<svg viewBox="0 0 1024 1024" fill="currentColor" width="32" height="32" xmlns="http://www.w3.org/2000/svg" xmlns:xlink="http://www.w3.org/1999/xlink">
    <path d="M182.874 56.87c-21.423 3.725-41.581 19.701-51.451 40.777l-5.023 10.712v807.392l6.113 12.434c7.691 15.591 22.441 29.571 37.438 35.435 13.451 5.232 36.525 5.688 49.031 0.985 13.732-5.199 645.625-392.512 656.794-402.623 28.695-25.846 29.258-72.913 1.226-98.968-5.271-4.879-134.234-84.923-317.916-197.273-350.363-214.27-333.194-203.911-341.902-206.618-6.726-1.966-14.449-3.102-22.441-3.102-4.189 0-8.304 0.31-12.32 0.913l0.457-0.052zM536.995 334.463c158.886 97.109 288.906 177.008 288.906 177.537 0.032 0.529-141.537 87.486-314.615 193.271l-314.647 192.286v-771.287l25.742 15.807 314.615 192.39z" />
</svg>