<svg viewBox="0 0 1024 1024" fill="currentColor" width="32" height="32" xmlns="http://www.w3.org/2000/svg" xmlns:xlink="http://www.w3.org/1999/xlink">
    <path d="M512 96c-229.75 0-416 186.25-416 416s186.25 416 416 416c229.75 0 416-186.25 416-416v0c-0.25-229.65-186.35-415.75-415.976-416l-0.024-0zM512 864c-194.404 0-352-157.596-352-352s157.596-352 352-352c194.404 0 352 157.596 352 352v0c-0.228 194.313-157.687 351.772-351.978 352l-0.022 0zM704 512c0 17.673-14.327 32-32 32v0h-128v128c0 17.673-14.327 32-32 32s-32-14.327-32-32v0-128h-128c-17.673 0-32-14.327-32-32s14.327-32 32-32v0h128v-128c0-17.673 14.327-32 32-32s32 14.327 32 32v0 128h128c17.673 0 32 14.327 32 32v0z" />
</svg>