<svg viewBox="0 0 1024 1024" fill="currentColor" width="32" height="32" xmlns="http://www.w3.org/2000/svg" xmlns:xlink="http://www.w3.org/1999/xlink">
    <path d="M858.68 288h-58.68v-128c0-17.673-14.327-32-32-32v0h-512c-17.673 0-32 14.327-32 32v0 128h-58.68c-55.88 0-101.32 43.080-101.32 96v320c0 17.673 14.327 32 32 32v0h128v128c0 17.673 14.327 32 32 32v0h512c17.673 0 32-14.327 32-32v0-128h128c17.673 0 32-14.327 32-32v0-320c0-52.92-45.44-96-101.32-96zM288 192h448v96h-448zM736 832h-448v-192h448zM896 672h-96v-64c0-17.673-14.327-32-32-32v0h-512c-17.673 0-32 14.327-32 32v0 64h-96v-288c0-17.64 16.76-32 37.32-32h693.36c20.56 0 37.32 14.36 37.32 32zM800 464c0 26.51-21.49 48-48 48s-48-21.49-48-48c0-26.51 21.49-48 48-48v0c26.51 0 48 21.49 48 48v0z" />
</svg>