<svg viewBox="0 0 1024 1024" fill="currentColor" width="32" height="32" xmlns="http://www.w3.org/2000/svg" xmlns:xlink="http://www.w3.org/1999/xlink">
    <path d="M490.856 43.053c-18.107 6.473-42.555 26.368-81.501 66.258-56.413 57.793-95.999 116.398-125.504 185.893-20.367 47.916-35.101 104.46-39.586 151.835l-1.248 13.354-60.357 72.495c-15.815 18.547-36.931 44.102-57.779 69.89l-6.759 8.645c-5.565 7.996-10.889 25.592-10.889 35.878 0 12.206 53.276 250.903 58.674 262.941 5.933 13.184 20.063 27.244 33.753 33.585 9.473 4.385 13.218 5.057 27.176 5.057 13.722 0 17.703-0.708 26.3-4.752 5.597-2.596 37.019-25.052 69.899-49.904l59.749-45.151h258.189l59.817 45.183c32.877 24.852 64.338 47.307 69.867 49.904 8.529 4.013 12.542 4.721 26.232 4.721 13.958 0 17.703-0.68 27.176-5.057 13.69-6.344 27.819-20.399 33.753-33.585 5.4-12.038 58.674-250.735 58.674-262.941 0-10.286-5.329-27.884-10.858-35.878-2.292-3.305-31.325-38.61-64.538-78.464l-60.357-72.427-2.224-20.163c-4.988-45.115-19.759-100.857-38.238-144.282-30.077-70.675-68.855-128.168-125.908-186.769-31.461-32.337-58.029-54.997-73.439-62.686-14.734-7.317-35.474-8.802-50.072-3.572zM530.479 122.357c96.099 83.017 158.852 191.222 178.439 307.72 3.944 23.368 5.429 87.166 2.665 114.374-7.052 69.762-30.045 142.903-67.234 213.814l-11.33 21.579h-242.306l-11.33-21.579c-37.362-71.283-59.985-143.17-67.203-213.814-3.137-30.449-1.348-91.006 3.472-118.895 17.063-98.527 64.302-188.825 139.561-266.885 22.591-23.436 52.771-50.475 56.376-50.475 1.348-0.032 9.845 6.373 18.883 14.162zM498.918 378.557c-24.648 6.877-39.214 27.952-36.922 53.345 1.956 21.683 16.724 38.438 38.81 44.102 9.982 2.568 12.106 2.568 21.815 0.068 24.107-6.169 39.319-24.816 39.518-48.487 0.1-12.138-2.864-20.839-10.554-31.021-11.702-15.51-34.157-23.2-52.668-18.007zM249.295 587.414c10.417 62.178 34.187 131.709 66.526 194.763l12.274 23.94-49.467 37.226c-9.060 7.17-25.56 19.541-42.192 31.747l-8.488 5.951c-1.448 0.54-53.040-230.504-52.096-233.268 0.608-1.82 68.687-84.365 69.227-83.925 0.168 0.1 2.056 10.721 4.22 23.571zM847.609 647.231c0.776 1.86-49.231 232.057-50.816 233.945-0.844 0.976-99.708-73.98-99.708-75.6 0-0.844 5.565-12.61 12.374-26.2 34.965-69.867 58.438-141.89 67.606-207.745l1.18-8.566 34.225 40.934c18.815 22.523 34.629 41.978 35.131 43.226zM440.822 916.446c-1.683 0.562-3.926 1.162-6.214 1.661l-0.503 0.091c-2.696 0.572-7.857 3.677-11.498 6.877-18.848 16.554-14.194 44.643 9.237 55.469 6.609 3.068 12.914 3.336 80.017 3.336s73.408-0.268 80.017-3.336c13.286-6.137 20.703-17.163 20.703-30.753 0.009-0.322 0.018-0.69 0.018-1.071 0-8.234-3.314-15.697-8.693-21.116v0c-10.69-11.296-8.704-11.060-88.446-11.43-40.058-0.204-73.644-0.068-74.656 0.268z" />
</svg>