<svg viewBox="0 0 1024 1024" fill="currentColor" width="32" height="32" xmlns="http://www.w3.org/2000/svg" xmlns:xlink="http://www.w3.org/1999/xlink">
    <path d="M427.64 596.36c52.111 51.833 84.361 123.587 84.361 202.874 0 0.269-0 0.539-0.001 0.808l0-0.042c0 17.673-14.327 32-32 32s-32-14.327-32-32v0c0-123.712-100.288-224-224-224v0c-17.673 0-32-14.327-32-32s14.327-32 32-32v0c0.227-0.001 0.497-0.001 0.766-0.001 79.287 0 151.042 32.25 202.862 84.349l0.012 0.012zM224 320c-17.673 0-32 14.327-32 32s14.327 32 32 32v0c229.75 0 416 186.25 416 416v0c0 17.673 14.327 32 32 32s32-14.327 32-32v0c0-265.097-214.903-480-480-480v0zM699.16 324.84c-120.94-121.592-288.366-196.842-473.368-196.842-0.63 0-1.26 0.001-1.89 0.003l0.097-0c-17.673 0-32 14.327-32 32s14.327 32 32 32v0c0.492-0.001 1.074-0.002 1.656-0.002 167.373 0 318.846 68.079 428.238 178.056l0.026 0.026c110.004 109.418 178.082 260.891 178.082 428.264 0 0.582-0.001 1.164-0.002 1.746l0-0.090c0 17.673 14.327 32 32 32s32-14.327 32-32v0c0.002-0.532 0.002-1.162 0.002-1.792 0-185.002-75.251-352.427-196.813-473.339l-0.029-0.029zM240 736c-26.51 0-48 21.49-48 48s21.49 48 48 48c26.51 0 48-21.49 48-48v0c0-26.51-21.49-48-48-48v0z" />
</svg>