<svg viewBox="0 0 1024 1024" fill="currentColor" width="32" height="32" xmlns="http://www.w3.org/2000/svg" xmlns:xlink="http://www.w3.org/1999/xlink">
    <path d="M150.743 91.376c-20.524 7.073-36.257 23.282-42.542 43.624l-0.132 0.475c-3.668 11.843-3.735 14.46-2.991 163.855 0.778 164.198 0.715 162.904 11.471 216.845 18.078 88.743 55.76 166.663 108.418 232.003l-0.809-1.033c19.896 24.747 57.197 61.955 82.286 82.047 26.91 21.241 57.084 41.613 88.733 59.687l3.597 1.889c41.143 22.605 98.070 45.281 113.147 45.116 14.12-0.202 70.544-22.068 104.992-40.733 110.631-59.846 190.815-139.278 242.138-239.794 28.517-55.872 44.978-109.812 55.912-183.512 2.648-17.856 3.193-41.582 3.799-172.514 0.748-149.393 0.677-152.011-2.991-163.855-4.477-14.915-13.723-27.254-25.939-35.529l-0.233-0.141c-18.877-12.531 9.438-11.682-378.436-11.611-328.87 0.071-351.95 0.273-360.439 3.193zM850.036 304.009c-0.647 143.119-0.849 149.909-4.689 173.808-14.157 88.087-45.453 160.772-96.443 224.045-54.487 67.583-132.286 123.969-217.391 157.549l-19.351 7.64-13.238-5.060c-111.106-42.3-203.809-117.997-260.439-212.707-29.699-49.697-49.495-106.255-59.984-171.463-3.84-23.899-4.042-30.689-4.689-173.808l-0.677-148.889h677.567l-0.677 148.889zM503.34 292.608c-7.741 1.9-17.785 9.741-21.726 16.936-2.92 5.295-3.193 13.712-3.193 99.94 0 91.997 0.101 94.301 3.799 101.394 5.366 10.253 17.755 17.617 29.699 17.617s24.344-7.367 29.699-17.617c3.698-7.094 3.799-9.405 3.799-101.394 0-91.623-0.101-94.301-3.735-100.444-7.438-12.662-24.24-19.856-38.359-16.431zM494.72 599.955c-12.632 4.315-26.475 18.361-30.719 31.164-3.84 11.577-3.051 28.749 1.728 38.258 4.345 8.589 14.905 19.351 23.555 24.030 9.812 5.265 34.863 5.568 44.372 0.546 29.941-15.816 38.157-54.042 16.906-78.86-9.772-10.883-23.878-17.684-39.582-17.684-5.81 0-11.409 0.929-16.633 2.658l0.374-0.111z" />
</svg>