<svg viewBox="0 0 1024 1024" fill="currentColor" width="32" height="32" xmlns="http://www.w3.org/2000/svg" xmlns:xlink="http://www.w3.org/1999/xlink">
    <path d="M864 160h-704c-35.346 0-64 28.654-64 64v0 576c0 35.346 28.654 64 64 64v0h704c35.346 0 64-28.654 64-64v0-576c0-35.346-28.654-64-64-64v0zM160 608h64c17.673 0 32-14.327 32-32s-14.327-32-32-32v0h-64v-64h64c17.673 0 32-14.327 32-32s-14.327-32-32-32v0h-64v-64h64c17.673 0 32-14.327 32-32s-14.327-32-32-32v0h-64v-64h160v576h-160zM864 800h-480v-576h480v576z" />
</svg>