<svg viewBox="0 0 1024 1024" fill="currentColor" width="32" height="32" xmlns="http://www.w3.org/2000/svg" xmlns:xlink="http://www.w3.org/1999/xlink">
    <path d="M937.16 459.4l-180 155.32 54.84 232.28c1.151 4.597 1.811 9.875 1.811 15.307 0 36.23-29.37 65.6-65.6 65.6-12.654 0-24.471-3.583-34.492-9.789l0.281 0.162-202-124.32-202.12 124.32c-9.708 5.991-21.475 9.541-34.070 9.541-36.23 0-65.6-29.37-65.6-65.6 0-5.401 0.653-10.65 1.884-15.671l-0.093 0.45 55.040-232.28-180-155.32c-13.991-12.141-22.788-29.95-22.788-49.814 0-34.33 26.275-62.524 59.812-65.568l0.256-0.019 236-19.040 91.040-220.32c10.048-24.023 33.359-40.594 60.54-40.594s50.492 16.572 60.38 40.163l0.16 0.431 91 220.32 236 19.040c33.896 2.952 60.291 31.197 60.291 65.606 0 19.875-8.806 37.693-22.729 49.765l-0.082 0.070z" />
</svg>