<svg viewBox="0 0 1024 1024" fill="currentColor" width="32" height="32" xmlns="http://www.w3.org/2000/svg" xmlns:xlink="http://www.w3.org/1999/xlink">
    <path d="M956.72 389.040c-8.252-24.821-30.285-42.819-56.802-45.024l-0.238-0.016-236-19.040-91.12-220.36c-10.048-24.023-33.359-40.594-60.54-40.594s-50.492 16.572-60.38 40.163l-0.16 0.431-91.040 220.32-236.12 19.080c-33.896 2.952-60.291 31.197-60.291 65.606 0 19.875 8.806 37.693 22.729 49.765l0.082 0.070 180 155.32-54.84 232.24c-1.178 4.648-1.854 9.983-1.854 15.476 0 36.186 29.334 65.52 65.52 65.52 12.706 0 24.568-3.617 34.611-9.877l-0.277 0.161 202-124.32 202.12 124.32c9.708 5.991 21.475 9.541 34.070 9.541 36.23 0 65.6-29.37 65.6-65.6 0-5.401-0.653-10.65-1.884-15.671l0.093 0.45-55.040-232.28 180-155.32c14.121-12.126 23.010-30 23.010-49.95 0-7.297-1.189-14.316-3.384-20.874l0.135 0.464zM895.36 410.92l-194.8 168c-6.819 5.902-11.108 14.569-11.108 24.239 0 2.626 0.316 5.178 0.913 7.62l-0.045-0.219 59.52 251.2c0.081 0.177 0.128 0.384 0.128 0.601 0 0.572-0.325 1.068-0.8 1.315l-0.008 0.004c-0.72 0.56-0.92 0.44-1.52 0l-218.88-134.6c-4.768-2.976-10.558-4.74-16.76-4.74s-11.992 1.764-16.895 4.819l0.135-0.079-218.88 134.68c-0.6 0.36-0.76 0.48-1.52 0-0.483-0.25-0.808-0.746-0.808-1.319 0-0.218 0.047-0.425 0.132-0.611l-0.004 0.009 59.52-251.2c0.551-2.223 0.868-4.775 0.868-7.401 0-9.669-4.289-18.337-11.067-24.204l-0.040-0.034-194.8-168c-0.48-0.4-0.92-0.76-0.52-2s0.72-1.080 1.32-1.16l255.68-20.64c12.183-1.076 22.322-8.835 26.802-19.549l0.078-0.211 98.48-238.44c0.32-0.68 0.44-1 1.4-1s1.080 0.32 1.4 1l98.72 238.44c4.598 10.925 14.785 18.664 26.884 19.672l0.116 0.008 255.68 20.64c0.6 0 0.96 0 1.32 1.16s-0 1.6-0.64 2z" />
</svg>