<svg viewBox="0 0 1024 1024" fill="currentColor" width="32" height="32" xmlns="http://www.w3.org/2000/svg" xmlns:xlink="http://www.w3.org/1999/xlink">
    <path d="M986.64 494.24l-182.64-273.72c-11.584-17.286-31.040-28.514-53.119-28.52l-590.881-0c-35.346 0-64 28.654-64 64v0 512c0 35.346 28.654 64 64 64v0h590.88c22.062-0.042 41.499-11.241 52.975-28.253l0.145-0.227 182.52-273.76c3.408-5.009 5.441-11.192 5.441-17.85 0-6.582-1.987-12.699-5.394-17.786l0.073 0.116zM750.88 768h-590.88v-512h590.88l170.64 256z" />
</svg>