<svg viewBox="0 0 1024 1024" fill="currentColor" width="32" height="32" xmlns="http://www.w3.org/2000/svg" xmlns:xlink="http://www.w3.org/1999/xlink">
    <path d="M923.68 848c-60.92-105.32-154.8-180.84-264.36-216.64 84.826-51.143 140.68-142.783 140.68-247.469 0-159.058-128.942-288-288-288s-288 128.942-288 288c0 104.685 55.854 196.325 139.388 246.745l1.292 0.724c-109.56 35.76-203.44 111.28-264.36 216.64-2.964 4.761-4.721 10.54-4.721 16.73 0 17.673 14.327 32 32 32 12.076 0 22.59-6.689 28.038-16.565l0.083-0.165c75.36-130.24 208.56-208 356.28-208s280.92 77.76 356.28 208c5.532 10.040 16.045 16.73 28.121 16.73 17.673 0 32-14.327 32-32 0-6.19-1.757-11.969-4.8-16.866l0.079 0.136zM288 384c0-123.712 100.288-224 224-224s224 100.288 224 224c0 123.712-100.288 224-224 224v0c-123.657-0.137-223.863-100.343-224-223.987l-0-0.013z" />
</svg>