<svg viewBox="0 0 1024 1024" fill="currentColor" width="32" height="32" xmlns="http://www.w3.org/2000/svg" xmlns:xlink="http://www.w3.org/1999/xlink">
    <path d="M166.288 147.622c-16.377 9.039-23.799 24.532-20.166 42.202 1.838 9.105 6.574 14.067 157.932 165.601l156.011 156.195-156.011 156.195c-152.603 152.82-156.054 156.421-157.999 165.818-0.847 3.321-1.332 7.142-1.332 11.068 0 0.243 0 0.481 0.013 0.71v-0.033c0.368 1.169 1.169 4.558 1.838 7.49 1.287 5.981 11.201 18.111 17.477 21.485 7.418 3.963 16.641 5.062 26.146 3.124 9.105-1.871 14.134-6.683 165.601-157.932l156.195-155.978 156.195 155.978c151.533 151.35 156.496 156.095 165.601 157.932 9.506 1.947 18.729 0.847 26.146-3.124 6.282-3.375 16.194-15.505 17.477-21.485 0.664-2.941 1.47-6.315 1.838-7.49 0-0.206 0.013-0.435 0.013-0.664 0-3.939-0.493-7.765-1.437-11.403l0.069 0.322c-1.904-9.406-5.429-13.079-157.966-165.818l-155.978-156.195 155.978-156.195c152.527-152.754 156.054-156.421 157.966-165.818 1.103-5.291 1.687-10.575 1.353-11.75-0.459-1.483-1.090-3.997-1.667-6.532l-0.171-0.952c-1.437-6.532-11.494-18.328-18.912-22.187-7.267-3.742-23.908-3.596-31.726 0.298-3.459 1.72-75.7 72.459-160.539 157.198l-154.257 154.038-154.257-154.038c-84.839-84.727-157.080-155.461-160.539-157.198-7.168-3.558-25.127-4.077-30.925-0.847z" />
</svg>